<?xml version="1.0" encoding="UTF-8" standalone="no"?>
<svg
   height="297mm"
   width="210mm"
   version="1.1"
   id="svg349"
   xmlns="http://www.w3.org/2000/svg"
   xmlns:svg="http://www.w3.org/2000/svg">
  <defs
     id="defs353" />
  <g
     id="g1438"
     transform="matrix(3.6049906,0,0,3.6049906,36.350837,200.76069)">
    <circle
       cx="100"
       cy="100"
       r="105"
       stroke="black"
       stroke-width="1"
       fill="#ffffff"
       id="circle9"
       style="stroke:#000000;stroke-width:1;stroke-miterlimit:4;stroke-dasharray:1, 1;stroke-dashoffset:0;stroke-opacity:0.365044" />
    <circle
       cx="100"
       cy="100"
       r="2"
       stroke="#000000"
       stroke-width="0"
       fill="#000000"
       id="circle11" />
    <g
       transform="translate(100,100)"
       id="g25">
      <polygon
         points="98,5 98,-5 65,-5 70,0 65,5 "
         id="polygon13" />
      <circle
         cx="75"
         cy="0"
         r="2"
         stroke="#000000"
         stroke-width="0"
         fill="#ffffff"
         id="circle15" />
      <circle
         cx="79.5"
         cy="0"
         r="2"
         stroke="#000000"
         stroke-width="0"
         fill="#ffffff"
         id="circle17" />
      <circle
         cx="84"
         cy="0"
         r="2"
         stroke="#000000"
         stroke-width="0"
         fill="#ffffff"
         id="circle19" />
      <circle
         cx="88.5"
         cy="0"
         r="2"
         stroke="#000000"
         stroke-width="0"
         fill="#ffffff"
         id="circle21" />
      <circle
         cx="93"
         cy="0"
         r="2"
         stroke="#000000"
         stroke-width="0"
         fill="#ffffff"
         id="circle23" />
    </g>
    <g
       transform="rotate(15,-329.78771,429.78771)"
       id="g39">
      <polygon
         points="98,5 98,-5 65,-5 70,0 65,5 "
         id="polygon27" />
      <circle
         cx="75"
         cy="0"
         r="2"
         stroke="#000000"
         stroke-width="0"
         fill="#000000"
         id="circle29" />
      <circle
         cx="79.5"
         cy="0"
         r="2"
         stroke="#000000"
         stroke-width="0"
         fill="#ffffff"
         id="circle31" />
      <circle
         cx="84"
         cy="0"
         r="2"
         stroke="#000000"
         stroke-width="0"
         fill="#ffffff"
         id="circle33" />
      <circle
         cx="88.5"
         cy="0"
         r="2"
         stroke="#000000"
         stroke-width="0"
         fill="#ffffff"
         id="circle35" />
      <circle
         cx="93"
         cy="0"
         r="2"
         stroke="#000000"
         stroke-width="0"
         fill="#ffffff"
         id="circle37" />
    </g>
    <g
       transform="rotate(30,-136.60254,236.60254)"
       id="g53">
      <polygon
         points="98,5 98,-5 65,-5 70,0 65,5 "
         id="polygon41" />
      <circle
         cx="75"
         cy="0"
         r="2"
         stroke="#000000"
         stroke-width="0"
         fill="#ffffff"
         id="circle43" />
      <circle
         cx="79.5"
         cy="0"
         r="2"
         stroke="#000000"
         stroke-width="0"
         fill="#000000"
         id="circle45" />
      <circle
         cx="84"
         cy="0"
         r="2"
         stroke="#000000"
         stroke-width="0"
         fill="#ffffff"
         id="circle47" />
      <circle
         cx="88.5"
         cy="0"
         r="2"
         stroke="#000000"
         stroke-width="0"
         fill="#ffffff"
         id="circle49" />
      <circle
         cx="93"
         cy="0"
         r="2"
         stroke="#000000"
         stroke-width="0"
         fill="#ffffff"
         id="circle51" />
    </g>
    <g
       transform="rotate(45,-70.710678,170.71068)"
       id="g67">
      <polygon
         points="98,5 98,-5 65,-5 70,0 65,5 "
         id="polygon55" />
      <circle
         cx="75"
         cy="0"
         r="2"
         stroke="#000000"
         stroke-width="0"
         fill="#000000"
         id="circle57" />
      <circle
         cx="79.5"
         cy="0"
         r="2"
         stroke="#000000"
         stroke-width="0"
         fill="#000000"
         id="circle59" />
      <circle
         cx="84"
         cy="0"
         r="2"
         stroke="#000000"
         stroke-width="0"
         fill="#ffffff"
         id="circle61" />
      <circle
         cx="88.5"
         cy="0"
         r="2"
         stroke="#000000"
         stroke-width="0"
         fill="#ffffff"
         id="circle63" />
      <circle
         cx="93"
         cy="0"
         r="2"
         stroke="#000000"
         stroke-width="0"
         fill="#ffffff"
         id="circle65" />
    </g>
    <g
       transform="rotate(60,-36.60254,136.60254)"
       id="g81">
      <polygon
         points="98,5 98,-5 65,-5 70,0 65,5 "
         id="polygon69" />
      <circle
         cx="75"
         cy="0"
         r="2"
         stroke="#000000"
         stroke-width="0"
         fill="#ffffff"
         id="circle71" />
      <circle
         cx="79.5"
         cy="0"
         r="2"
         stroke="#000000"
         stroke-width="0"
         fill="#ffffff"
         id="circle73" />
      <circle
         cx="84"
         cy="0"
         r="2"
         stroke="#000000"
         stroke-width="0"
         fill="#000000"
         id="circle75" />
      <circle
         cx="88.5"
         cy="0"
         r="2"
         stroke="#000000"
         stroke-width="0"
         fill="#ffffff"
         id="circle77" />
      <circle
         cx="93"
         cy="0"
         r="2"
         stroke="#000000"
         stroke-width="0"
         fill="#ffffff"
         id="circle79" />
    </g>
    <g
       transform="rotate(75,-15.161269,115.16127)"
       id="g95">
      <polygon
         points="98,5 98,-5 65,-5 70,0 65,5 "
         id="polygon83" />
      <circle
         cx="75"
         cy="0"
         r="2"
         stroke="#000000"
         stroke-width="0"
         fill="#000000"
         id="circle85" />
      <circle
         cx="79.5"
         cy="0"
         r="2"
         stroke="#000000"
         stroke-width="0"
         fill="#ffffff"
         id="circle87" />
      <circle
         cx="84"
         cy="0"
         r="2"
         stroke="#000000"
         stroke-width="0"
         fill="#000000"
         id="circle89" />
      <circle
         cx="88.5"
         cy="0"
         r="2"
         stroke="#000000"
         stroke-width="0"
         fill="#ffffff"
         id="circle91" />
      <circle
         cx="93"
         cy="0"
         r="2"
         stroke="#000000"
         stroke-width="0"
         fill="#ffffff"
         id="circle93" />
    </g>
    <g
       transform="rotate(90,0,100)"
       id="g109">
      <polygon
         points="98,5 98,-5 65,-5 70,0 65,5 "
         id="polygon97" />
      <circle
         cx="75"
         cy="0"
         r="2"
         stroke="#000000"
         stroke-width="0"
         fill="#ffffff"
         id="circle99" />
      <circle
         cx="79.5"
         cy="0"
         r="2"
         stroke="#000000"
         stroke-width="0"
         fill="#000000"
         id="circle101" />
      <circle
         cx="84"
         cy="0"
         r="2"
         stroke="#000000"
         stroke-width="0"
         fill="#000000"
         id="circle103" />
      <circle
         cx="88.5"
         cy="0"
         r="2"
         stroke="#000000"
         stroke-width="0"
         fill="#ffffff"
         id="circle105" />
      <circle
         cx="93"
         cy="0"
         r="2"
         stroke="#000000"
         stroke-width="0"
         fill="#ffffff"
         id="circle107" />
    </g>
    <g
       transform="rotate(105,11.633651,88.366349)"
       id="g123">
      <polygon
         points="98,5 98,-5 65,-5 70,0 65,5 "
         id="polygon111" />
      <circle
         cx="75"
         cy="0"
         r="2"
         stroke="#000000"
         stroke-width="0"
         fill="#000000"
         id="circle113" />
      <circle
         cx="79.5"
         cy="0"
         r="2"
         stroke="#000000"
         stroke-width="0"
         fill="#000000"
         id="circle115" />
      <circle
         cx="84"
         cy="0"
         r="2"
         stroke="#000000"
         stroke-width="0"
         fill="#000000"
         id="circle117" />
      <circle
         cx="88.5"
         cy="0"
         r="2"
         stroke="#000000"
         stroke-width="0"
         fill="#ffffff"
         id="circle119" />
      <circle
         cx="93"
         cy="0"
         r="2"
         stroke="#000000"
         stroke-width="0"
         fill="#ffffff"
         id="circle121" />
    </g>
    <g
       transform="rotate(120,21.132487,78.867513)"
       id="g137">
      <polygon
         points="98,5 98,-5 65,-5 70,0 65,5 "
         id="polygon125" />
      <circle
         cx="75"
         cy="0"
         r="2"
         stroke="#000000"
         stroke-width="0"
         fill="#ffffff"
         id="circle127" />
      <circle
         cx="79.5"
         cy="0"
         r="2"
         stroke="#000000"
         stroke-width="0"
         fill="#ffffff"
         id="circle129" />
      <circle
         cx="84"
         cy="0"
         r="2"
         stroke="#000000"
         stroke-width="0"
         fill="#ffffff"
         id="circle131" />
      <circle
         cx="88.5"
         cy="0"
         r="2"
         stroke="#000000"
         stroke-width="0"
         fill="#000000"
         id="circle133" />
      <circle
         cx="93"
         cy="0"
         r="2"
         stroke="#000000"
         stroke-width="0"
         fill="#ffffff"
         id="circle135" />
    </g>
    <g
       transform="rotate(135,29.289322,70.710678)"
       id="g151">
      <polygon
         points="98,5 98,-5 65,-5 70,0 65,5 "
         id="polygon139" />
      <circle
         cx="75"
         cy="0"
         r="2"
         stroke="#000000"
         stroke-width="0"
         fill="#000000"
         id="circle141" />
      <circle
         cx="79.5"
         cy="0"
         r="2"
         stroke="#000000"
         stroke-width="0"
         fill="#ffffff"
         id="circle143" />
      <circle
         cx="84"
         cy="0"
         r="2"
         stroke="#000000"
         stroke-width="0"
         fill="#ffffff"
         id="circle145" />
      <circle
         cx="88.5"
         cy="0"
         r="2"
         stroke="#000000"
         stroke-width="0"
         fill="#000000"
         id="circle147" />
      <circle
         cx="93"
         cy="0"
         r="2"
         stroke="#000000"
         stroke-width="0"
         fill="#ffffff"
         id="circle149" />
    </g>
    <g
       transform="rotate(150,36.60254,63.39746)"
       id="g165">
      <polygon
         points="98,5 98,-5 65,-5 70,0 65,5 "
         id="polygon153" />
      <circle
         cx="75"
         cy="0"
         r="2"
         stroke="#000000"
         stroke-width="0"
         fill="#ffffff"
         id="circle155" />
      <circle
         cx="79.5"
         cy="0"
         r="2"
         stroke="#000000"
         stroke-width="0"
         fill="#000000"
         id="circle157" />
      <circle
         cx="84"
         cy="0"
         r="2"
         stroke="#000000"
         stroke-width="0"
         fill="#ffffff"
         id="circle159" />
      <circle
         cx="88.5"
         cy="0"
         r="2"
         stroke="#000000"
         stroke-width="0"
         fill="#000000"
         id="circle161" />
      <circle
         cx="93"
         cy="0"
         r="2"
         stroke="#000000"
         stroke-width="0"
         fill="#ffffff"
         id="circle163" />
    </g>
    <g
       transform="rotate(165,43.417375,56.582625)"
       id="g179">
      <polygon
         points="98,5 98,-5 65,-5 70,0 65,5 "
         id="polygon167" />
      <circle
         cx="75"
         cy="0"
         r="2"
         stroke="#000000"
         stroke-width="0"
         fill="#000000"
         id="circle169" />
      <circle
         cx="79.5"
         cy="0"
         r="2"
         stroke="#000000"
         stroke-width="0"
         fill="#000000"
         id="circle171" />
      <circle
         cx="84"
         cy="0"
         r="2"
         stroke="#000000"
         stroke-width="0"
         fill="#ffffff"
         id="circle173" />
      <circle
         cx="88.5"
         cy="0"
         r="2"
         stroke="#000000"
         stroke-width="0"
         fill="#000000"
         id="circle175" />
      <circle
         cx="93"
         cy="0"
         r="2"
         stroke="#000000"
         stroke-width="0"
         fill="#ffffff"
         id="circle177" />
    </g>
    <g
       transform="rotate(180,50,50)"
       id="g193">
      <polygon
         points="98,5 98,-5 65,-5 70,0 65,5 "
         id="polygon181" />
      <circle
         cx="75"
         cy="0"
         r="2"
         stroke="#000000"
         stroke-width="0"
         fill="#ffffff"
         id="circle183" />
      <circle
         cx="79.5"
         cy="0"
         r="2"
         stroke="#000000"
         stroke-width="0"
         fill="#ffffff"
         id="circle185" />
      <circle
         cx="84"
         cy="0"
         r="2"
         stroke="#000000"
         stroke-width="0"
         fill="#000000"
         id="circle187" />
      <circle
         cx="88.5"
         cy="0"
         r="2"
         stroke="#000000"
         stroke-width="0"
         fill="#000000"
         id="circle189" />
      <circle
         cx="93"
         cy="0"
         r="2"
         stroke="#000000"
         stroke-width="0"
         fill="#ffffff"
         id="circle191" />
    </g>
    <g
       transform="rotate(-165,56.582625,43.417375)"
       id="g207">
      <polygon
         points="98,5 98,-5 65,-5 70,0 65,5 "
         id="polygon195" />
      <circle
         cx="75"
         cy="0"
         r="2"
         stroke="#000000"
         stroke-width="0"
         fill="#000000"
         id="circle197" />
      <circle
         cx="79.5"
         cy="0"
         r="2"
         stroke="#000000"
         stroke-width="0"
         fill="#ffffff"
         id="circle199" />
      <circle
         cx="84"
         cy="0"
         r="2"
         stroke="#000000"
         stroke-width="0"
         fill="#000000"
         id="circle201" />
      <circle
         cx="88.5"
         cy="0"
         r="2"
         stroke="#000000"
         stroke-width="0"
         fill="#000000"
         id="circle203" />
      <circle
         cx="93"
         cy="0"
         r="2"
         stroke="#000000"
         stroke-width="0"
         fill="#ffffff"
         id="circle205" />
    </g>
    <g
       transform="rotate(-150,63.39746,36.60254)"
       id="g221">
      <polygon
         points="98,5 98,-5 65,-5 70,0 65,5 "
         id="polygon209" />
      <circle
         cx="75"
         cy="0"
         r="2"
         stroke="#000000"
         stroke-width="0"
         fill="#ffffff"
         id="circle211" />
      <circle
         cx="79.5"
         cy="0"
         r="2"
         stroke="#000000"
         stroke-width="0"
         fill="#000000"
         id="circle213" />
      <circle
         cx="84"
         cy="0"
         r="2"
         stroke="#000000"
         stroke-width="0"
         fill="#000000"
         id="circle215" />
      <circle
         cx="88.5"
         cy="0"
         r="2"
         stroke="#000000"
         stroke-width="0"
         fill="#000000"
         id="circle217" />
      <circle
         cx="93"
         cy="0"
         r="2"
         stroke="#000000"
         stroke-width="0"
         fill="#ffffff"
         id="circle219" />
    </g>
    <g
       transform="rotate(-135,70.710678,29.289322)"
       id="g235">
      <polygon
         points="98,5 98,-5 65,-5 70,0 65,5 "
         id="polygon223" />
      <circle
         cx="75"
         cy="0"
         r="2"
         stroke="#000000"
         stroke-width="0"
         fill="#000000"
         id="circle225" />
      <circle
         cx="79.5"
         cy="0"
         r="2"
         stroke="#000000"
         stroke-width="0"
         fill="#000000"
         id="circle227" />
      <circle
         cx="84"
         cy="0"
         r="2"
         stroke="#000000"
         stroke-width="0"
         fill="#000000"
         id="circle229" />
      <circle
         cx="88.5"
         cy="0"
         r="2"
         stroke="#000000"
         stroke-width="0"
         fill="#000000"
         id="circle231" />
      <circle
         cx="93"
         cy="0"
         r="2"
         stroke="#000000"
         stroke-width="0"
         fill="#ffffff"
         id="circle233" />
    </g>
    <g
       transform="rotate(-120,78.867513,21.132487)"
       id="g249">
      <polygon
         points="98,5 98,-5 65,-5 70,0 65,5 "
         id="polygon237" />
      <circle
         cx="75"
         cy="0"
         r="2"
         stroke="#000000"
         stroke-width="0"
         fill="#ffffff"
         id="circle239" />
      <circle
         cx="79.5"
         cy="0"
         r="2"
         stroke="#000000"
         stroke-width="0"
         fill="#ffffff"
         id="circle241" />
      <circle
         cx="84"
         cy="0"
         r="2"
         stroke="#000000"
         stroke-width="0"
         fill="#ffffff"
         id="circle243" />
      <circle
         cx="88.5"
         cy="0"
         r="2"
         stroke="#000000"
         stroke-width="0"
         fill="#ffffff"
         id="circle245" />
      <circle
         cx="93"
         cy="0"
         r="2"
         stroke="#000000"
         stroke-width="0"
         fill="#000000"
         id="circle247" />
    </g>
    <g
       transform="rotate(-105,88.366349,11.633651)"
       id="g263">
      <polygon
         points="98,5 98,-5 65,-5 70,0 65,5 "
         id="polygon251" />
      <circle
         cx="75"
         cy="0"
         r="2"
         stroke="#000000"
         stroke-width="0"
         fill="#000000"
         id="circle253" />
      <circle
         cx="79.5"
         cy="0"
         r="2"
         stroke="#000000"
         stroke-width="0"
         fill="#ffffff"
         id="circle255" />
      <circle
         cx="84"
         cy="0"
         r="2"
         stroke="#000000"
         stroke-width="0"
         fill="#ffffff"
         id="circle257" />
      <circle
         cx="88.5"
         cy="0"
         r="2"
         stroke="#000000"
         stroke-width="0"
         fill="#ffffff"
         id="circle259" />
      <circle
         cx="93"
         cy="0"
         r="2"
         stroke="#000000"
         stroke-width="0"
         fill="#000000"
         id="circle261" />
    </g>
    <g
       transform="rotate(-90,100,0)"
       id="g277">
      <polygon
         points="98,5 98,-5 65,-5 70,0 65,5 "
         id="polygon265" />
      <circle
         cx="75"
         cy="0"
         r="2"
         stroke="#000000"
         stroke-width="0"
         fill="#ffffff"
         id="circle267" />
      <circle
         cx="79.5"
         cy="0"
         r="2"
         stroke="#000000"
         stroke-width="0"
         fill="#000000"
         id="circle269" />
      <circle
         cx="84"
         cy="0"
         r="2"
         stroke="#000000"
         stroke-width="0"
         fill="#ffffff"
         id="circle271" />
      <circle
         cx="88.5"
         cy="0"
         r="2"
         stroke="#000000"
         stroke-width="0"
         fill="#ffffff"
         id="circle273" />
      <circle
         cx="93"
         cy="0"
         r="2"
         stroke="#000000"
         stroke-width="0"
         fill="#000000"
         id="circle275" />
    </g>
    <g
       transform="rotate(-75,115.16127,-15.161269)"
       id="g291">
      <polygon
         points="98,5 98,-5 65,-5 70,0 65,5 "
         id="polygon279" />
      <circle
         cx="75"
         cy="0"
         r="2"
         stroke="#000000"
         stroke-width="0"
         fill="#000000"
         id="circle281" />
      <circle
         cx="79.5"
         cy="0"
         r="2"
         stroke="#000000"
         stroke-width="0"
         fill="#000000"
         id="circle283" />
      <circle
         cx="84"
         cy="0"
         r="2"
         stroke="#000000"
         stroke-width="0"
         fill="#ffffff"
         id="circle285" />
      <circle
         cx="88.5"
         cy="0"
         r="2"
         stroke="#000000"
         stroke-width="0"
         fill="#ffffff"
         id="circle287" />
      <circle
         cx="93"
         cy="0"
         r="2"
         stroke="#000000"
         stroke-width="0"
         fill="#000000"
         id="circle289" />
    </g>
    <g
       transform="rotate(-60,136.60254,-36.60254)"
       id="g305">
      <polygon
         points="98,5 98,-5 65,-5 70,0 65,5 "
         id="polygon293" />
      <circle
         cx="75"
         cy="0"
         r="2"
         stroke="#000000"
         stroke-width="0"
         fill="#ffffff"
         id="circle295" />
      <circle
         cx="79.5"
         cy="0"
         r="2"
         stroke="#000000"
         stroke-width="0"
         fill="#ffffff"
         id="circle297" />
      <circle
         cx="84"
         cy="0"
         r="2"
         stroke="#000000"
         stroke-width="0"
         fill="#000000"
         id="circle299" />
      <circle
         cx="88.5"
         cy="0"
         r="2"
         stroke="#000000"
         stroke-width="0"
         fill="#ffffff"
         id="circle301" />
      <circle
         cx="93"
         cy="0"
         r="2"
         stroke="#000000"
         stroke-width="0"
         fill="#000000"
         id="circle303" />
    </g>
    <g
       transform="rotate(-45,170.71068,-70.710678)"
       id="g319">
      <polygon
         points="98,5 98,-5 65,-5 70,0 65,5 "
         id="polygon307" />
      <circle
         cx="75"
         cy="0"
         r="2"
         stroke="#000000"
         stroke-width="0"
         fill="#000000"
         id="circle309" />
      <circle
         cx="79.5"
         cy="0"
         r="2"
         stroke="#000000"
         stroke-width="0"
         fill="#ffffff"
         id="circle311" />
      <circle
         cx="84"
         cy="0"
         r="2"
         stroke="#000000"
         stroke-width="0"
         fill="#000000"
         id="circle313" />
      <circle
         cx="88.5"
         cy="0"
         r="2"
         stroke="#000000"
         stroke-width="0"
         fill="#ffffff"
         id="circle315" />
      <circle
         cx="93"
         cy="0"
         r="2"
         stroke="#000000"
         stroke-width="0"
         fill="#000000"
         id="circle317" />
    </g>
    <g
       transform="rotate(-30,236.60254,-136.60254)"
       id="g333">
      <polygon
         points="98,5 98,-5 65,-5 70,0 65,5 "
         id="polygon321" />
      <circle
         cx="75"
         cy="0"
         r="2"
         stroke="#000000"
         stroke-width="0"
         fill="#ffffff"
         id="circle323" />
      <circle
         cx="79.5"
         cy="0"
         r="2"
         stroke="#000000"
         stroke-width="0"
         fill="#000000"
         id="circle325" />
      <circle
         cx="84"
         cy="0"
         r="2"
         stroke="#000000"
         stroke-width="0"
         fill="#000000"
         id="circle327" />
      <circle
         cx="88.5"
         cy="0"
         r="2"
         stroke="#000000"
         stroke-width="0"
         fill="#ffffff"
         id="circle329" />
      <circle
         cx="93"
         cy="0"
         r="2"
         stroke="#000000"
         stroke-width="0"
         fill="#000000"
         id="circle331" />
    </g>
    <g
       transform="rotate(-15,429.78771,-329.78771)"
       id="g347">
      <polygon
         points="98,5 98,-5 65,-5 70,0 65,5 "
         id="polygon335" />
      <circle
         cx="75"
         cy="0"
         r="2"
         stroke="#000000"
         stroke-width="0"
         fill="#000000"
         id="circle337" />
      <circle
         cx="79.5"
         cy="0"
         r="2"
         stroke="#000000"
         stroke-width="0"
         fill="#000000"
         id="circle339" />
      <circle
         cx="84"
         cy="0"
         r="2"
         stroke="#000000"
         stroke-width="0"
         fill="#000000"
         id="circle341" />
      <circle
         cx="88.5"
         cy="0"
         r="2"
         stroke="#000000"
         stroke-width="0"
         fill="#ffffff"
         id="circle343" />
      <circle
         cx="93"
         cy="0"
         r="2"
         stroke="#000000"
         stroke-width="0"
         fill="#000000"
         id="circle345" />
    </g>
  </g>
</svg>
